<svg width="48" height="47" viewBox="0 0 48 47" fill="#000000" xmlns="http://www.w3.org/2000/svg">
    <g clip-path="url(#clip0_23_21)">
        <path d="M23.5984 0C10.5603 0 9.15527e-05 10.4256 9.15527e-05 23.2975C9.15527e-05 33.6067 6.75511 42.3141 16.1354 45.401C17.3154 45.6049 17.7578 44.906 17.7578 44.2944C17.7578 43.7411 17.7283 41.9064 17.7283 39.9552C11.7993 41.0327 10.2654 38.5283 9.7934 37.2178C9.52791 36.548 8.3775 34.4803 7.37457 33.927C6.54863 33.4902 5.36871 32.4127 7.34507 32.3835C9.20344 32.3544 10.5308 34.0726 10.9733 34.7715C13.0972 38.2953 16.4894 37.3051 17.8463 36.6936C18.0528 35.1792 18.6723 34.16 19.3507 33.5775C14.1001 32.9951 8.61348 30.9857 8.61348 22.0744C8.61348 19.5408 9.52791 17.444 11.0323 15.8132C10.7963 15.2308 9.97038 12.8428 11.2683 9.63935C11.2683 9.63935 13.2446 9.02779 17.7578 12.0273C19.6457 11.5031 21.6516 11.2411 23.6574 11.2411C25.6633 11.2411 27.6691 11.5031 29.557 12.0273C34.0702 8.99867 36.0465 9.63935 36.0465 9.63935C37.3444 12.8428 36.5185 15.2308 36.2825 15.8132C37.7869 17.444 38.7013 19.5117 38.7013 22.0744C38.7013 31.0148 33.1852 32.9951 27.9346 33.5775C28.79 34.3056 29.5275 35.7034 29.5275 37.8876C29.5275 41.0036 29.498 43.5081 29.498 44.2944C29.498 44.906 29.9405 45.634 31.1204 45.401C35.8053 43.8401 39.8764 40.8677 42.7603 36.9026C45.6443 32.9374 47.1959 28.179 47.1967 23.2975C47.1967 10.4256 36.6365 0 23.5984 0Z" fill="white"/>
    </g>
    <defs>
        <clipPath id="clip0_23_21">
            <rect width="47.1966" height="46.595" fill="white"/>
        </clipPath>
    </defs>
</svg>
