<svg width="50" height="50" viewBox="0 0 25 25" fill="none" xmlns="http://www.w3.org/2000/svg">
    <g clip-path="url(#clip0_175_91)">
        <path d="M12.4082 0C5.55265 0 0 5.48187 0 12.25C0 17.6706 3.55184 22.2491 8.48408 23.8722C9.10449 23.9794 9.33714 23.6119 9.33714 23.2903C9.33714 22.9994 9.32163 22.0347 9.32163 21.0087C6.20408 21.5753 5.39755 20.2584 5.14939 19.5694C5.0098 19.2172 4.4049 18.13 3.87755 17.8391C3.44327 17.6094 2.82286 17.0428 3.86204 17.0275C4.83918 17.0122 5.53714 17.9156 5.7698 18.2831C6.88653 20.1359 8.6702 19.6153 9.38367 19.2937C9.49224 18.4975 9.81796 17.9616 10.1747 17.6553C7.41388 17.3491 4.52898 16.2925 4.52898 11.6069C4.52898 10.2747 5.0098 9.17219 5.80082 8.31469C5.67673 8.00844 5.24245 6.75281 5.9249 5.06844C5.9249 5.06844 6.96408 4.74687 9.33714 6.32406C10.3298 6.04844 11.3845 5.91062 12.4392 5.91062C13.4939 5.91062 14.5486 6.04844 15.5412 6.32406C17.9143 4.73156 18.9535 5.06844 18.9535 5.06844C19.6359 6.75281 19.2016 8.00844 19.0776 8.31469C19.8686 9.17219 20.3494 10.2594 20.3494 11.6069C20.3494 16.3078 17.449 17.3491 14.6882 17.6553C15.138 18.0381 15.5257 18.7731 15.5257 19.9216C15.5257 21.56 15.5102 22.8769 15.5102 23.2903C15.5102 23.6119 15.7429 23.9947 16.3633 23.8722C18.8266 23.0514 20.9672 21.4886 22.4836 19.4036C24 17.3187 24.8159 14.8167 24.8163 12.25C24.8163 5.48187 19.2637 0 12.4082 0Z" fill="black"/>
    </g>
    <defs>
        <clipPath id="clip0_175_91">
            <rect width="24.8163" height="24.5" fill="white"/>
        </clipPath>
    </defs>
</svg>
