<svg width="48" height="47" viewBox="0 0 48 47" fill="currentColor" xmlns="http://www.w3.org/2000/svg">
    <g clip-path="url(#clip0_23_24)">
        <path d="M23.5983 0C17.1943 0 16.389 0.0291219 13.8729 0.139785C11.3567 0.256273 9.64286 0.646506 8.14142 1.22312C6.56651 1.80794 5.13998 2.7253 3.96157 3.91107C2.76123 5.07506 1.83214 6.48323 1.23891 8.03764C0.654853 9.51704 0.256632 11.2119 0.14159 13.6873C0.0294979 16.1772 0 16.9693 0 23.3004C0 29.6257 0.0294979 30.4178 0.14159 32.9019C0.259582 35.3831 0.654853 37.0751 1.23891 38.5574C1.84362 40.0892 2.64891 41.388 3.96157 42.684C5.27128 43.9799 6.58688 44.7778 8.13847 45.3719C9.64286 45.9485 11.3537 46.3417 13.867 46.4552C16.3861 46.5659 17.1884 46.595 23.5983 46.595C30.0082 46.595 30.8076 46.5659 33.3267 46.4552C35.837 46.3388 37.5567 45.9485 39.0582 45.3719C40.6321 44.7868 42.0576 43.8694 43.2351 42.684C44.5477 41.388 45.353 40.0892 45.9577 38.5574C46.5388 37.0751 46.9371 35.3831 47.0551 32.9019C47.1671 30.4178 47.1966 29.6257 47.1966 23.2975C47.1966 16.9693 47.1671 16.1772 47.0551 13.6902C46.9371 11.2119 46.5388 9.51704 45.9577 8.03764C45.3646 6.48319 44.4355 5.075 43.2351 3.91107C42.057 2.72487 40.6304 1.80744 39.0552 1.22312C37.5508 0.646506 35.8341 0.253361 33.3238 0.139785C30.8047 0.0291219 30.0053 0 23.5924 0H23.6013H23.5983ZM21.4833 4.19938H23.6013C29.902 4.19938 30.6483 4.21976 33.135 4.33334C35.4358 4.43527 36.6865 4.81676 37.5184 5.13419C38.6187 5.55646 39.4062 6.06318 40.2322 6.87859C41.0581 7.69401 41.5684 8.46865 41.9962 9.55781C42.3206 10.3761 42.7041 11.6109 42.8074 13.8824C42.9224 16.3374 42.946 17.0742 42.946 23.2917C42.946 29.5092 42.9224 30.2489 42.8074 32.7039C42.7041 34.9754 42.3177 36.2073 41.9962 37.0285C41.6178 38.0401 41.014 38.9547 40.2292 39.7048C39.4033 40.5202 38.6187 41.024 37.5154 41.4463C36.6895 41.7666 35.4388 42.1452 33.135 42.25C30.6483 42.3607 29.902 42.3869 23.6013 42.3869C17.3005 42.3869 16.5513 42.3607 14.0646 42.25C11.7638 42.1452 10.516 41.7666 9.68416 41.4463C8.65911 41.0733 7.73177 40.4782 6.97035 39.7048C6.18497 38.9535 5.58019 38.038 5.20048 37.0256C4.87895 36.2073 4.49253 34.9725 4.38929 32.701C4.2772 30.246 4.2536 29.5092 4.2536 23.2859C4.2536 17.0654 4.2772 16.3316 4.38929 13.8766C4.49548 11.6051 4.87895 10.3703 5.20343 9.54907C5.63115 8.46282 6.14441 7.68527 6.97035 6.86986C7.7963 6.05444 8.58094 5.55063 9.68416 5.12837C10.516 4.80803 11.7638 4.42944 14.0646 4.3246C16.2415 4.22559 17.0852 4.19647 21.4833 4.19355V4.19938ZM36.1969 8.06677C35.825 8.06677 35.4568 8.13908 35.1132 8.27958C34.7696 8.42007 34.4574 8.626 34.1945 8.88561C33.9315 9.14521 33.7229 9.45341 33.5806 9.7926C33.4383 10.1318 33.3651 10.4953 33.3651 10.8625C33.3651 11.2296 33.4383 11.5931 33.5806 11.9323C33.7229 12.2715 33.9315 12.5797 34.1945 12.8393C34.4574 13.0989 34.7696 13.3049 35.1132 13.4454C35.4568 13.5859 35.825 13.6582 36.1969 13.6582C36.9479 13.6582 37.6682 13.3636 38.1993 12.8393C38.7303 12.315 39.0287 11.6039 39.0287 10.8625C39.0287 10.121 38.7303 9.4099 38.1993 8.88561C37.6682 8.36131 36.9479 8.06677 36.1969 8.06677ZM23.6013 11.3342C21.9938 11.3095 20.3975 11.6007 18.9051 12.1908C17.4128 12.781 16.0543 13.6584 14.9087 14.7719C13.7631 15.8853 12.8533 17.2127 12.2323 18.6766C11.6113 20.1406 11.2915 21.7118 11.2915 23.299C11.2915 24.8861 11.6113 26.4574 12.2323 27.9213C12.8533 29.3853 13.7631 30.7126 14.9087 31.8261C16.0543 32.9396 17.4128 33.8169 18.9051 34.4071C20.3975 34.9973 21.9938 35.2885 23.6013 35.2637C26.7827 35.2147 29.8171 33.9326 32.0494 31.6941C34.2817 29.4556 35.5329 26.4403 35.5329 23.299C35.5329 20.1577 34.2817 17.1423 32.0494 14.9039C29.8171 12.6654 26.7827 11.3832 23.6013 11.3342ZM23.6013 15.5307C25.6878 15.5307 27.6888 16.349 29.1641 17.8056C30.6395 19.2621 31.4684 21.2376 31.4684 23.2975C31.4684 25.3574 30.6395 27.3329 29.1641 28.7895C27.6888 30.246 25.6878 31.0643 23.6013 31.0643C21.5148 31.0643 19.5138 30.246 18.0384 28.7895C16.563 27.3329 15.7342 25.3574 15.7342 23.2975C15.7342 21.2376 16.563 19.2621 18.0384 17.8056C19.5138 16.349 21.5148 15.5307 23.6013 15.5307Z" fill="white"/>
    </g>
    <defs>
        <clipPath id="clip0_23_24">
            <rect width="47.1966" height="46.595" fill="white"/>
        </clipPath>
    </defs>
</svg>
