<svg width="50" height="50" viewBox="0 0 25 25" fill="none" xmlns="http://www.w3.org/2000/svg">
    <g clip-path="url(#clip0_175_87)">
        <path d="M12.5918 0C9.22457 0 8.80114 0.0153125 7.47812 0.0735C6.1551 0.13475 5.25396 0.339937 4.46449 0.643125C3.63639 0.950629 2.88631 1.43298 2.26669 2.05647C1.63554 2.6685 1.14702 3.40893 0.835099 4.22625C0.527997 5.00413 0.318609 5.89531 0.258119 7.19687C0.19918 8.50609 0.18367 8.92259 0.18367 12.2515C0.18367 15.5774 0.19918 15.9939 0.258119 17.3001C0.32016 18.6047 0.527997 19.4943 0.835099 20.2738C1.15306 21.0792 1.57649 21.7621 2.26669 22.4435C2.95534 23.1249 3.6471 23.5445 4.46294 23.8569C5.25396 24.1601 6.15355 24.3668 7.47502 24.4265C8.79959 24.4847 9.22147 24.5 12.5918 24.5C15.9622 24.5 16.3825 24.4847 17.7071 24.4265C19.027 24.3652 19.9313 24.1601 20.7207 23.8569C21.5483 23.5492 22.2978 23.0669 22.917 22.4435C23.6072 21.7621 24.0306 21.0792 24.3486 20.2738C24.6541 19.4943 24.8635 18.6047 24.9255 17.3001C24.9845 15.9939 25 15.5774 25 12.25C25 8.92259 24.9845 8.50609 24.9255 7.19841C24.8635 5.89531 24.6541 5.00413 24.3486 4.22625C24.0367 3.40891 23.5482 2.66847 22.917 2.05647C22.2975 1.43275 21.5474 0.950363 20.7192 0.643125C19.9282 0.339937 19.0255 0.133219 17.7055 0.0735C16.381 0.0153125 15.9606 0 12.5887 0H12.5934H12.5918ZM11.4798 2.20806H12.5934C15.9064 2.20806 16.2988 2.21878 17.6063 2.2785C18.8161 2.33209 19.4737 2.53269 19.9111 2.69959C20.4896 2.92162 20.9038 3.18806 21.338 3.61681C21.7723 4.04556 22.0406 4.45288 22.2655 5.02556C22.4362 5.45584 22.6378 6.10509 22.6921 7.29947C22.7526 8.59031 22.765 8.97772 22.765 12.2469C22.765 15.5162 22.7526 15.9051 22.6921 17.1959C22.6378 18.3903 22.4346 19.038 22.2655 19.4698C22.0666 20.0017 21.7491 20.4827 21.3365 20.8771C20.9022 21.3058 20.4896 21.5707 19.9095 21.7928C19.4753 21.9612 18.8176 22.1602 17.6063 22.2154C16.2988 22.2736 15.9064 22.2873 12.5934 22.2873C9.28041 22.2873 8.88645 22.2736 7.57894 22.2154C6.36914 22.1602 5.71306 21.9612 5.27567 21.7928C4.73669 21.5966 4.24909 21.2837 3.84873 20.8771C3.43577 20.4821 3.11777 20.0007 2.91812 19.4683C2.74906 19.038 2.54587 18.3888 2.49159 17.1944C2.43265 15.9036 2.42024 15.5162 2.42024 12.2439C2.42024 8.97312 2.43265 8.58725 2.49159 7.29641C2.54743 6.10203 2.74906 5.45278 2.91967 5.02097C3.14457 4.44981 3.41445 4.04097 3.84873 3.61222C4.28302 3.18347 4.69559 2.91856 5.27567 2.69653C5.71306 2.52809 6.36914 2.32903 7.57894 2.27391C8.72359 2.22184 9.16718 2.20653 11.4798 2.205V2.20806ZM19.2162 4.24156C19.0207 4.24156 18.8271 4.27959 18.6464 4.35346C18.4658 4.42733 18.3016 4.53561 18.1634 4.67212C18.0251 4.80862 17.9154 4.97067 17.8406 5.14902C17.7658 5.32737 17.7273 5.51852 17.7273 5.71156C17.7273 5.90461 17.7658 6.09576 17.8406 6.27411C17.9154 6.45246 18.0251 6.61451 18.1634 6.75101C18.3016 6.88751 18.4658 6.99579 18.6464 7.06967C18.8271 7.14354 19.0207 7.18156 19.2162 7.18156C19.6111 7.18156 19.9899 7.02669 20.2691 6.75101C20.5483 6.47533 20.7052 6.10143 20.7052 5.71156C20.7052 5.32169 20.5483 4.94779 20.2691 4.67212C19.9899 4.39644 19.6111 4.24156 19.2162 4.24156ZM12.5934 5.95962C11.7482 5.94661 10.9088 6.09971 10.1241 6.41003C9.33944 6.72034 8.62512 7.18167 8.02276 7.76715C7.4204 8.35263 6.94203 9.05056 6.61551 9.8203C6.28898 10.5901 6.12082 11.4162 6.12082 12.2508C6.12082 13.0853 6.28898 13.9115 6.61551 14.6812C6.94203 15.451 7.4204 16.1489 8.02276 16.7344C8.62512 17.3199 9.33944 17.7812 10.1241 18.0915C10.9088 18.4018 11.7482 18.5549 12.5934 18.5419C14.2662 18.5161 15.8617 17.842 17.0355 16.665C18.2092 15.488 18.8671 13.9025 18.8671 12.2508C18.8671 10.599 18.2092 9.01357 17.0355 7.83655C15.8617 6.65954 14.2662 5.98539 12.5934 5.95962ZM12.5934 8.16616C13.6905 8.16616 14.7426 8.59642 15.5184 9.36229C16.2941 10.1282 16.73 11.1669 16.73 12.25C16.73 13.3331 16.2941 14.3718 15.5184 15.1377C14.7426 15.9036 13.6905 16.3338 12.5934 16.3338C11.4963 16.3338 10.4441 15.9036 9.66839 15.1377C8.89263 14.3718 8.45681 13.3331 8.45681 12.25C8.45681 11.1669 8.89263 10.1282 9.66839 9.36229C10.4441 8.59642 11.4963 8.16616 12.5934 8.16616Z" fill="black"/>
    </g>
    <defs>
        <clipPath id="clip0_175_87">
            <rect width="24.8163" height="24.5" fill="white" transform="translate(0.18367)"/>
        </clipPath>
    </defs>
</svg>
