<svg width="50" height="50" viewBox="0 0 25 25" fill="none" xmlns="http://www.w3.org/2000/svg">
    <g clip-path="url(#clip0_175_93)">
        <path d="M0 6.125C0 5.31277 0.322655 4.53382 0.896986 3.95949C1.47132 3.38516 2.25027 3.0625 3.0625 3.0625H21.4375C22.2497 3.0625 23.0287 3.38516 23.603 3.95949C24.1773 4.53382 24.5 5.31277 24.5 6.125V18.375C24.5 19.1872 24.1773 19.9662 23.603 20.5405C23.0287 21.1148 22.2497 21.4375 21.4375 21.4375H3.0625C2.25027 21.4375 1.47132 21.1148 0.896986 20.5405C0.322655 19.9662 0 19.1872 0 18.375V6.125ZM3.0625 4.59375C2.65639 4.59375 2.26691 4.75508 1.97974 5.04224C1.69258 5.32941 1.53125 5.71889 1.53125 6.125V6.45728L12.25 12.8885L22.9688 6.45728V6.125C22.9688 5.71889 22.8074 5.32941 22.5203 5.04224C22.2331 4.75508 21.8436 4.59375 21.4375 4.59375H3.0625ZM22.9688 8.24272L15.7596 12.5685L22.9688 17.0045V8.24272ZM22.9167 18.7716L14.2804 13.4566L12.25 14.674L10.2196 13.4566L1.58331 18.7701C1.67033 19.0959 1.86248 19.3839 2.12995 19.5894C2.39742 19.7948 2.72524 19.9062 3.0625 19.9062H21.4375C21.7746 19.9063 22.1022 19.7951 22.3697 19.59C22.6371 19.3848 22.8294 19.0972 22.9167 18.7716ZM1.53125 17.0045L8.74038 12.5685L1.53125 8.24272V17.0045Z" fill="black"/>
    </g>
    <defs>
        <clipPath id="clip0_175_93">
            <rect width="24.5" height="24.5" fill="white"/>
        </clipPath>
    </defs>
</svg>
