<svg width="50" height="49" viewBox="0 0 26 25" fill="none" xmlns="http://www.w3.org/2000/svg">
    <g clip-path="url(#clip0_175_89)">
        <path d="M0.489796 18.375V6.125C0.489796 5.31277 0.816617 4.53382 1.39836 3.95949C1.98011 3.38516 2.76912 3.0625 3.59184 3.0625H22.2041C23.0268 3.0625 23.8158 3.38516 24.3976 3.95949C24.9793 4.53382 25.3061 5.31277 25.3061 6.125V18.375C25.3061 19.1872 24.9793 19.9662 24.3976 20.5405C23.8158 21.1148 23.0268 21.4375 22.2041 21.4375H3.59184C2.76912 21.4375 1.98011 21.1148 1.39836 20.5405C0.816617 19.9662 0.489796 19.1872 0.489796 18.375ZM11.0212 7.79866C10.9053 7.71715 10.7688 7.66872 10.6268 7.65868C10.4848 7.64864 10.3428 7.67737 10.2163 7.74174C10.0897 7.8061 9.98356 7.9036 9.90941 8.02357C9.83527 8.14354 9.79601 8.28134 9.79592 8.42187V16.0781C9.79601 16.2187 9.83527 16.3565 9.90941 16.4764C9.98356 16.5964 10.0897 16.6939 10.2163 16.7583C10.3428 16.8226 10.4848 16.8514 10.6268 16.8413C10.7688 16.8313 10.9053 16.7829 11.0212 16.7013L16.4498 12.8732C16.5503 12.8024 16.6323 12.7089 16.6888 12.6005C16.7453 12.4921 16.7748 12.3719 16.7748 12.25C16.7748 12.1281 16.7453 12.0079 16.6888 11.8995C16.6323 11.7911 16.5503 11.6976 16.4498 11.6268L11.0212 7.79866Z" fill="black"/>
    </g>
    <defs>
        <clipPath id="clip0_175_89">
            <rect width="24.8163" height="24.5" fill="white" transform="translate(0.489796)"/>
        </clipPath>
    </defs>
</svg>
