<svg width="48" height="36" viewBox="0 0 48 36" fill="none" xmlns="http://www.w3.org/2000/svg">
    <path d="M0 29.9463V6.64878C0 5.10406 0.621561 3.62261 1.72795 2.53032C2.83433 1.43804 4.33491 0.824402 5.89958 0.824402H41.2971C42.8617 0.824402 44.3623 1.43804 45.4687 2.53032C46.5751 3.62261 47.1966 5.10406 47.1966 6.64878V29.9463C47.1966 31.491 46.5751 32.9725 45.4687 34.0648C44.3623 35.157 42.8617 35.7707 41.2971 35.7707H5.89958C4.33491 35.7707 2.83433 35.157 1.72795 34.0648C0.621561 32.9725 0 31.491 0 29.9463ZM20.0291 9.8318C19.8085 9.67678 19.549 9.58468 19.279 9.56559C19.009 9.54649 18.7388 9.60114 18.4982 9.72355C18.2575 9.84596 18.0556 10.0314 17.9146 10.2596C17.7736 10.4877 17.6989 10.7498 17.6987 11.0171V25.578C17.6989 25.8453 17.7736 26.1074 17.9146 26.3355C18.0556 26.5637 18.2575 26.7491 18.4982 26.8715C18.7388 26.9939 19.009 27.0486 19.279 27.0295C19.549 27.0104 19.8085 26.9183 20.0291 26.7633L30.3533 19.4828C30.5445 19.3481 30.7004 19.1703 30.8079 18.9641C30.9154 18.758 30.9715 18.5294 30.9715 18.2975C30.9715 18.0657 30.9154 17.8371 30.8079 17.631C30.7004 17.4248 30.5445 17.247 30.3533 17.1123L20.0291 9.8318Z" fill="white"/>
</svg>
